**ABCDEFGHIJKLMNOPQRSTUVWXYZabcdefghijklmnopqrstuvwxyz**************************
**PARASOLID !"#$%&'()*+,-./:;<=>?@[\]^_`{|}~0123456789**************************
**PART1;
MC=AMD64;
MC_MODEL=Intel64 Family 6 Model 69 Stepping 1, GenuineIntel;
MC_ID=unknown;
OS=Windows_NT;
OS_RELEASE=unknown;
FRU=Parasolid Version 29.0, build 201,  4-17-2017;
APPL=SOLIDWORKS 2017-2017317;
SITE=;
USER=unknown;
FORMAT=text;
GUISE=transmit;
KEY=makeProjectedPlanarWire;
FILE=makeProjectedPlanarWire.x_t;
DATE=Sun Feb 03 22:51:36 2019;
**PART2;
SCH=SCH_2900201_28101;
USFLD_SIZE=0;
**PART3;
**END_OF_HEADER*****************************************************************
T51 : TRANSMIT FILE created by modeller version 290020123 SCH_2900201_28101_1300
6203 0 12 33 CCCCCCI4 mesh1006 0 I8 polyline1008 0 CCCCCCCDI5 owner1040 0 CCCCCC
I13 boundary_mesh1006 0 I17 boundary_polyline1008 0 CCCA16 index_map_offset0 0 1
 dA9 index_map82 0 A17 node_id_index_map82 0 A20 schema_embedding_map82 0 A5 chi
ld12 0 A14 lowest_node_id0 0 1 dZ1 241 0 2 0 0 0 0 0 0 1e3 1e-8 0 3 0 1 0 3 1 4
 5 6 7 0 0 8 9 10 0 0 0 0 0 0 70 11 CI9 list_type0 0 1 uI10 notransmit0 0 1 lCCC
DCCDI12 finger_index0 0 1 dI12 finger_block1012 0 CZ2 0 4 T1 0 0 2 20 1 11 11 13
 255 4 232 0 1 0 12 0 0 8 12 50 255 5 2 0 12 0 0 0 +0 0 .063 0 0 1 1 0 0 30 255
 6 116 0 9 13 0 0 +-.14 -.03076398618846915 .063 1 0 0 29 255 7 224 0 10 14 0 -.
14 -.03076398618846915 .063 19 8 CCCCCCCA5 owner12 0 Z8 231 0 1 0 0 4 V0 16 255
 9 115 0 ?15 0 16 6 0 0 1 18 255 10 222 0 17 0 18 7 ?1 17 255 17 0 0 0 0 10 19 2
0 0 21 +18 18 219 0 22 10 23 14 ?1 17 22 0 24 21 25 18 26 16 0 15 -18 23 216 0 2
5 18 27 28 ?1 29 14 221 0 18 28 7 .14 -.03076398618846915 .063 29 28 218 0 23 29
 14 .14 .055 .063 29 29 215 0 27 30 28 -.14 .055 .063 18 27 213 0 19 23 31 29 ?1
 29 30 212 0 31 32 29 .11815 .01561601381153085 .063 18 31 210 0 33 27 34 30 ?1
 29 32 209 0 34 35 30 .08315 .01561601381153085 .063 18 34 207 0 36 31 37 32 ?1
 29 35 206 0 37 38 32 .08315 .02611601381153085 .063 18 37 204 0 39 34 40 35 ?1
 29 38 203 0 40 41 35 .11815 .02611601381153085 .063 18 40 201 0 42 37 43 38 ?1
 29 41 200 0 43 44 38 -.01605 .00861601381153085 .063 18 43 198 0 45 40 46 41 ?1
 29 44 197 0 46 47 41 -.01605 -.001883986188469155 .063 18 46 195 0 48 43 49 44
 ?1 29 47 194 0 49 50 44 -.05105 -.001883986188469155 .063 18 49 192 0 51 46 52
 47 ?1 29 50 191 0 52 53 47 -.05105 .00861601381153085 .063 18 52 189 0 54 49 55
 50 ?1 29 53 188 0 55 56 50 -.11815 .01561601381153085 .063 18 55 186 0 57 52 58
 53 ?1 29 56 185 0 58 59 53 -.11815 .02611601381153085 .063 18 58 183 0 60 55 61
 56 ?1 29 59 182 0 61 62 56 -.08315 .02611601381153085 .063 18 61 180 0 63 58 64
 59 ?1 29 62 179 0 64 65 59 -.08315 .01561601381153085 .063 18 64 177 0 66 61 67
 62 ?1 29 65 176 0 67 68 62 -.08315 .00861601381153085 .063 18 67 174 0 69 64 70
 65 ?1 29 68 173 0 70 71 65 -.08315 -.001883986188469155 .063 18 70 171 0 72 67
 73 68 ?1 29 71 170 0 73 74 68 -.11815 -.001883986188469155 .063 18 73 168 0 75
 70 76 71 ?1 29 74 167 0 76 77 71 -.11815 .00861601381153085 .063 18 76 165 0 78
 73 79 74 ?1 29 77 164 0 79 80 74 .11815 .00861601381153085 .063 18 79 162 0 81
 76 82 77 ?1 29 80 161 0 82 83 77 .11815 -.00188398618846915 .063 18 82 159 0 84
 79 85 80 ?1 29 83 158 0 85 86 80 .08315 -.00188398618846915 .063 18 85 156 0 87
 82 88 83 ?1 29 86 155 0 88 89 83 .08315 .00861601381153085 .063 18 88 153 0 90
 85 91 86 ?1 29 89 152 0 91 92 86 .05105 .01561601381153085 .063 18 91 150 0 93
 88 94 89 ?1 29 92 149 0 94 95 89 .01605 .01561601381153085 .063 18 94 147 0 96
 91 97 92 ?1 29 95 146 0 97 98 92 .01605 .02611601381153085 .063 18 97 144 0 99
 94 100 95 ?1 29 98 143 0 100 101 95 .05105 .02611601381153085 .063 18 100 141 0
 102 97 103 98 ?1 29 101 140 0 103 104 98 .05105 .00861601381153085 .063 18 103
 138 0 105 100 106 101 ?1 29 104 137 0 106 107 101 .05105 -.001883986188469155 .
063 18 106 135 0 108 103 109 104 ?1 29 107 134 0 109 110 104 .01605 -.0018839861
88469155 .063 18 109 132 0 111 106 112 107 ?1 29 110 131 0 112 113 107 .01605 .0
0861601381153085 .063 18 112 129 0 114 109 115 110 ?1 29 113 128 0 115 116 110 -
.05105 .01561601381153085 .063 18 115 126 0 117 112 118 113 ?1 29 116 125 0 118
 119 113 -.05105 .02611601381153085 .063 18 118 123 0 120 115 121 116 ?1 29 119
 122 0 121 122 116 -.01605 .02611601381153085 .063 18 121 120 0 123 118 124 119
 ?1 29 122 119 0 124 0 119 -.01605 .01561601381153085 .063 18 124 117 0 125 121
 0 122 ?1 17 125 0 126 123 127 124 117 128 0 129 -15 255 126 6 0 125 12 130 17 1
23 0 126 120 125 121 129 131 0 132 -17 127 0 126 125 120 115 133 134 0 0 -17 117
 0 0 0 0 115 125 128 0 127 +16 128 25 0 ?117 131 0 135 0 0 1 17 129 0 0 0 0 124
 123 131 0 0 +16 131 27 0 ?129 136 128 137 0 0 1 16 136 29 0 ?132 134 131 138 0
 0 1 30 137 28 0 131 135 138 0 +-.01605 .01561601381153085 .063 -330423519233677
5e-31 -1 0 30 135 26 0 128 0 137 0 +-.05105 .01561601381153085 .063 -1 0 0 30 13
8 30 0 136 137 139 0 +-.05105 .02611601381153085 .063 1 0 0 30 139 32 0 134 138
 140 0 +-.05105 .01561601381153085 .063 -660847038467355e-30 1 0 16 134 31 0 ?13
3 141 136 139 0 0 1 30 140 34 0 141 139 142 0 +.01605 .00861601381153085 .063 1
 0 0 16 141 33 0 ?105 143 134 140 0 0 1 30 142 36 0 143 140 144 0 +.01605 -.0018
83986188469155 .063 -660847038467355e-30 1 0 16 143 35 0 ?145 146 141 142 0 0 1
 30 144 38 0 146 142 147 0 +.01605 -.001883986188469155 .063 -1 0 0 16 146 37 0
 ?148 149 143 144 0 0 1 30 147 40 0 149 144 150 0 +.05105 -.001883986188469155 .
063 0 -1 0 16 149 39 0 ?151 152 146 147 0 0 1 30 150 42 0 152 147 153 0 +.05105
 .01561601381153085 .063 0 -1 0 16 152 41 0 ?93 154 149 150 0 0 1 30 153 44 0 15
4 150 155 0 +.01605 .02611601381153085 .063 1 0 0 16 154 43 0 ?156 157 152 153 0
 0 1 30 155 46 0 157 153 158 0 +.01605 .01561601381153085 .063 660847038467355e-
30 1 0 16 157 45 0 ?159 160 154 155 0 0 1 30 158 48 0 160 155 161 0 +.01605 .015
61601381153085 .063 -1 0 0 16 160 47 0 ?162 163 157 158 0 0 1 30 161 50 0 163 15
8 164 0 +.08315 .00861601381153085 .063 1 0 0 16 163 49 0 ?81 165 160 161 0 0 1
 30 164 52 0 165 161 166 0 +.08315 -.00188398618846915 .063 132169407693471e-29
 1 0 16 165 51 0 ?167 168 163 164 0 0 1 30 166 54 0 168 164 169 0 +.08315 -.0018
8398618846915 .063 -1 0 0 16 168 53 0 ?170 171 165 166 0 0 1 30 169 56 0 171 166
 172 0 +.11815 -.00188398618846915 .063 -132169407693471e-29 -1 0 16 171 55 0 ?1
73 174 168 169 0 0 1 30 172 58 0 174 169 175 0 +-.11815 .00861601381153085 .063
 1 0 0 16 174 57 0 ?69 176 171 172 0 0 1 30 175 60 0 176 172 177 0 +-.11815 -.00
1883986188469155 .063 396508223080413e-29 1 0 16 176 59 0 ?178 179 174 175 0 0 1
 30 177 62 0 179 175 180 0 +-.11815 -.001883986188469155 .063 -1 0 0 16 179 61 0
 ?181 182 176 177 0 0 1 30 180 64 0 182 177 183 0 +-.08315 -.001883986188469155
 .063 -396508223080413e-29 -1 0 16 182 63 0 ?184 185 179 180 0 0 1 30 183 66 0 1
85 180 186 0 +-.11815 .01561601381153085 .063 -1 0 0 16 185 65 0 ?57 187 182 183
 0 0 1 30 186 68 0 187 183 188 0 +-.08315 .01561601381153085 .063 39650822308041
3e-29 -1 0 16 187 67 0 ?189 190 185 186 0 0 1 30 188 70 0 190 186 191 0 +-.11815
 .02611601381153085 .063 1 0 0 16 190 69 0 ?192 193 187 188 0 0 1 30 191 72 0 19
3 188 194 0 +-.11815 .01561601381153085 .063 -396508223080413e-29 1 0 16 193 71
 0 ?195 196 190 191 0 0 1 30 194 74 0 196 191 197 0 +-.05105 .00861601381153085
 .063 1 0 0 16 196 73 0 ?45 198 193 194 0 0 1 30 197 76 0 198 194 199 0 +-.05105
 -.001883986188469155 .063 660847038467355e-30 1 0 16 198 75 0 ?200 201 196 197
 0 0 1 30 199 78 0 201 197 202 0 +-.05105 -.001883986188469155 .063 -1 0 0 16 20
1 77 0 ?203 204 198 199 0 0 1 30 202 80 0 204 199 205 0 +-.01605 -.0018839861884
69155 .063 3304235192336775e-31 -1 0 16 204 79 0 ?206 207 201 202 0 0 1 30 205 8
2 0 207 202 208 0 +.11815 .01561601381153085 .063 132169407693471e-29 -1 0 16 20
7 81 0 ?33 209 204 205 0 0 1 30 208 84 0 209 205 210 0 +.08315 .0261160138115308
5 .063 1 0 0 16 209 83 0 ?211 212 207 208 0 0 1 30 210 86 0 212 208 213 0 +.0831
5 .01561601381153085 .063 -132169407693471e-29 1 0 16 212 85 0 ?214 215 209 210
 0 0 1 30 213 88 0 215 210 216 0 +.08315 .01561601381153085 .063 -1 0 0 16 215 8
7 0 ?217 218 212 213 0 0 1 31 255 216 90 0 218 213 219 0 +.1342 .0498 .063 0 0 1
 1 0 0 .004 16 218 89 0 ?220 221 215 216 0 0 1 31 219 92 0 221 216 222 0 +.0671
 .0498 .063 0 0 1 1 0 0 .004 16 221 91 0 ?223 224 218 219 0 0 1 31 222 94 0 224
 219 225 0 +-2403843294162055e-32 .0498 .063 0 0 1 1 0 0 .004 16 224 93 0 ?226 2
27 221 222 0 0 1 31 225 96 0 227 222 228 0 +-.0671 .0498 .063 0 0 1 1 0 0 .004 1
6 227 95 0 ?229 230 224 225 0 0 1 31 228 98 0 230 225 231 0 +-.1342 .0498 .063 0
 0 1 1 0 0 .004 16 230 97 0 ?232 233 227 228 0 0 1 31 231 100 0 233 228 234 0 +-
.1342 -.0255639861884692 .063 0 0 1 1 0 0 .004 16 233 99 0 ?235 236 230 231 0 0
 1 31 234 102 0 236 231 237 0 +-.0671 -.02556398618846915 .063 0 0 1 1 0 0 .004
 16 236 101 0 ?238 239 233 234 0 0 1 31 237 104 0 239 234 240 0 +222096437046575
5e-32 -.02556398618846915 .063 0 0 1 1 0 0 .004 16 239 103 0 ?241 242 236 237 0
 0 1 31 240 106 0 242 237 243 0 +.0671 -.02556398618846915 .063 0 0 1 1 0 0 .004
 16 242 105 0 ?244 245 239 240 0 0 1 31 243 108 0 245 240 246 0 +.1342 -.0255639
8618846915 .063 0 0 1 1 0 0 .004 16 245 107 0 ?247 20 242 243 0 0 1 30 246 110 0
 20 243 248 0 +-.14 .055 .063 0 -1 0 16 20 109 0 ?17 249 245 246 0 0 1 30 248 11
2 0 249 246 13 0 +-.14 .055 .063 -1 0 0 16 249 111 0 ?250 16 20 248 0 0 1 30 13
 114 0 16 248 6 0 +.14 .055 .063 0 1 0 16 16 113 0 ?26 9 249 13 0 0 1 17 26 0 0
 0 0 23 22 16 0 0 +17 250 0 0 0 0 27 25 249 0 0 +17 25 0 24 22 19 23 250 249 0 2
6 -15 24 24 0 19 12 0 17 19 0 24 25 21 27 17 20 0 250 -17 21 0 24 19 22 10 15 9
 0 0 -17 15 0 0 0 0 18 21 9 0 0 +14 255 12 1 251 ?0 0 126 4 5 -0 0 0 0 4 81 255
 1 251 241 252 12 253 0 0 0 254 80 255 1 252 255 256 9000 1 1 1 1 1 1 1 1 0 FFFF
TFTFFFFFFF1 81 1 253 3 257 12 0 251 0 0 258 82 255 1 254 -1144061820 80 1 257 0
 259 8001 0 0 0 0 3 5 0 0 0 FFFFTFTFFFFFFF2 83 255 3 258 .792156862745098 .81960
7843137255 .933333333333333 79 255 15 259 SDL/TYSA_COLOUR79 14 256 SWEntUnchange
d17 247 0 260 247 247 0 261 245 0 0 +15 260 23 0 247 12 24 17 261 0 0 0 0 0 247
 245 0 0 -17 244 0 262 244 244 0 263 242 0 0 +15 262 22 0 244 12 260 17 263 0 0
 0 0 0 244 242 0 0 -17 241 0 264 241 241 0 265 239 0 0 +15 264 21 0 241 12 262 1
7 265 0 0 0 0 0 241 239 0 0 -17 238 0 266 238 238 0 267 236 0 0 +15 266 20 0 238
 12 264 17 267 0 0 0 0 0 238 236 0 0 -17 235 0 268 235 235 0 269 233 0 0 +15 268
 19 0 235 12 266 17 269 0 0 0 0 0 235 233 0 0 -17 232 0 270 232 232 0 271 230 0
 0 +15 270 18 0 232 12 268 17 271 0 0 0 0 0 232 230 0 0 -17 229 0 272 229 229 0
 273 227 0 0 +15 272 17 0 229 12 270 17 273 0 0 0 0 0 229 227 0 0 -17 226 0 274
 226 226 0 275 224 0 0 +15 274 16 0 226 12 272 17 275 0 0 0 0 0 226 224 0 0 -17
 223 0 276 223 223 0 277 221 0 0 +15 276 15 0 223 12 274 17 277 0 0 0 0 0 223 22
1 0 0 -17 220 0 278 220 220 0 279 218 0 0 +15 278 14 0 220 12 276 17 279 0 0 0 0
 0 220 218 0 0 -17 217 0 0 0 0 34 280 215 0 0 +17 280 0 281 42 36 31 217 215 0 0
 -15 281 13 0 42 12 278 17 42 0 281 39 280 40 33 207 0 211 -17 36 0 281 280 39 3
4 214 212 0 217 -17 39 0 281 36 42 37 211 209 0 214 -17 214 0 0 0 0 37 36 212 0
 0 +17 211 0 0 0 0 40 39 209 0 0 +17 33 0 0 0 0 31 42 207 0 280 +17 206 0 0 0 0
 46 282 204 0 0 +17 282 0 283 54 48 43 206 204 0 0 -15 283 12 0 54 12 281 17 54
 0 283 51 282 52 45 196 0 200 -17 48 0 283 282 51 46 203 201 0 206 -17 51 0 283
 48 54 49 200 198 0 203 -17 203 0 0 0 0 49 48 201 0 0 +17 200 0 0 0 0 52 51 198
 0 0 +17 45 0 0 0 0 43 54 196 0 282 +17 195 0 0 0 0 58 284 193 0 0 +17 284 0 285
 66 60 55 195 193 0 0 -15 285 11 0 66 12 283 17 66 0 285 63 284 64 57 185 0 189
 -17 60 0 285 284 63 58 192 190 0 195 -17 63 0 285 60 66 61 189 187 0 192 -17 19
2 0 0 0 0 61 60 190 0 0 +17 189 0 0 0 0 64 63 187 0 0 +17 57 0 0 0 0 55 66 185 0
 284 +17 184 0 0 0 0 70 286 182 0 0 +17 286 0 287 78 72 67 184 182 0 0 -15 287 1
0 0 78 12 285 17 78 0 287 75 286 76 69 174 0 178 -17 72 0 287 286 75 70 181 179
 0 184 -17 75 0 287 72 78 73 178 176 0 181 -17 181 0 0 0 0 73 72 179 0 0 +17 178
 0 0 0 0 76 75 176 0 0 +17 69 0 0 0 0 67 78 174 0 286 +17 173 0 0 0 0 82 288 171
 0 0 +17 288 0 289 90 84 79 173 171 0 0 -15 289 9 0 90 12 287 17 90 0 289 87 288
 88 81 163 0 167 -17 84 0 289 288 87 82 170 168 0 173 -17 87 0 289 84 90 85 167
 165 0 170 -17 170 0 0 0 0 85 84 168 0 0 +17 167 0 0 0 0 88 87 165 0 0 +17 81 0
 0 0 0 79 90 163 0 288 +17 162 0 0 0 0 94 290 160 0 0 +17 290 0 291 102 96 91 16
2 160 0 0 -15 291 8 0 102 12 289 17 102 0 291 99 290 100 93 152 0 156 -17 96 0 2
91 290 99 94 159 157 0 162 -17 99 0 291 96 102 97 156 154 0 159 -17 159 0 0 0 0
 97 96 157 0 0 +17 156 0 0 0 0 100 99 154 0 0 +17 93 0 0 0 0 91 102 152 0 290 +1
7 151 0 0 0 0 106 292 149 0 0 +17 292 0 130 114 108 103 151 149 0 0 -15 130 7 0
 114 12 291 17 114 0 130 111 292 112 105 141 0 145 -17 108 0 130 292 111 106 148
 146 0 151 -17 111 0 130 108 114 109 145 143 0 148 -17 148 0 0 0 0 109 108 146 0
 0 +17 145 0 0 0 0 112 111 143 0 0 +17 105 0 0 0 0 103 114 141 0 292 +17 133 0 0
 0 0 118 127 134 0 0 +17 132 0 0 0 0 121 120 136 0 0 +17 120 0 126 127 123 118 1
32 136 0 133 -74 4 CI16 index_map_offset0 0 1 dCCZ20 11 2 0 0 253 251 0 0 0 0 0
 0 0 0 0 0 0 0 0 0 0 0 0 0 1 0 
